<?xml version="1.0" standalone="no"?>
<!DOCTYPE svg PUBLIC "-//W3C//DTD SVG 20010904//EN"
 "http://www.w3.org/TR/2001/REC-SVG-20010904/DTD/svg10.dtd">
<svg version="1.0" xmlns="http://www.w3.org/2000/svg"
 width="500.000000pt" height="500.000000pt" viewBox="0 0 500.000000 500.000000"
 preserveAspectRatio="xMidYMid meet">

<g transform="translate(0.000000,500.000000) scale(0.100000,-0.100000)"
fill="#000000" stroke="none">
<path d="M3760 3110 c0 -5 11 -10 25 -10 l25 0 -2 -232 -3 -233 -22 -3 c-13
-2 -23 -8 -23 -13 0 -5 36 -9 80 -9 47 0 80 4 80 10 0 6 -11 10 -25 10 -24 0
-25 3 -25 58 0 44 5 63 18 75 10 10 21 17 24 17 4 0 30 -38 60 -85 l53 -85 53
0 c33 0 51 4 47 10 -3 6 -15 10 -26 10 -14 0 -37 27 -79 92 -33 51 -60 95 -60
99 0 12 99 99 114 99 8 0 18 5 21 10 4 6 -18 10 -59 10 -37 0 -66 -4 -66 -10
0 -5 12 -10 28 -10 25 -1 22 -6 -48 -70 l-75 -70 -3 170 -2 170 -55 0 c-30 0
-55 -4 -55 -10z"/>
<path d="M910 3070 c0 -5 14 -10 30 -10 l30 0 0 -215 0 -215 -30 0 c-16 0 -30
-4 -30 -10 0 -6 63 -10 170 -10 l170 0 0 38 c0 20 3 54 6 75 9 50 -12 49 -26
-2 -5 -21 -19 -50 -31 -65 -19 -24 -27 -26 -90 -26 l-69 0 0 215 0 215 36 0
c21 0 33 4 29 10 -3 6 -48 10 -101 10 -56 0 -94 -4 -94 -10z"/>
<path d="M1660 3070 c0 -5 14 -10 30 -10 l30 0 0 -215 0 -215 -30 0 c-16 0
-30 -4 -30 -10 0 -6 38 -10 95 -10 57 0 95 4 95 10 0 6 -13 10 -30 10 l-30 0
0 101 0 100 37 -3 c35 -3 39 -7 98 -108 l60 -105 58 -3 c35 -2 57 1 57 8 0 5
-10 10 -22 10 -18 0 -36 22 -85 100 l-62 100 36 17 c65 30 94 119 57 172 -33
46 -87 61 -231 61 -82 0 -133 -4 -133 -10z m259 -24 c48 -25 65 -91 36 -146
-20 -40 -43 -50 -109 -50 l-56 0 0 105 0 105 50 0 c28 0 63 -6 79 -14z"/>
<path d="M2500 3070 c0 -5 14 -10 30 -10 l30 0 0 -215 0 -215 -30 0 c-16 0
-30 -4 -30 -10 0 -6 51 -10 133 -10 108 0 140 4 174 20 50 22 83 70 83 120 0
46 -23 78 -71 99 -39 18 -39 18 -16 30 30 16 57 61 57 96 0 78 -59 104 -232
105 -79 0 -128 -4 -128 -10z m271 -39 c27 -33 25 -93 -3 -126 -18 -20 -35 -27
-80 -32 l-58 -6 0 98 0 97 61 -4 c49 -4 66 -9 80 -27z m14 -205 c48 -48 42
-134 -13 -176 -18 -15 -40 -20 -83 -20 l-59 0 0 110 0 110 65 0 c56 0 69 -4
90 -24z"/>
<path d="M1383 2930 c-54 -28 -83 -84 -83 -162 0 -69 27 -114 90 -146 70 -36
160 -17 190 39 17 31 3 36 -20 6 -29 -37 -88 -54 -126 -36 -33 16 -60 59 -69
112 l-7 37 84 0 c105 0 146 13 155 48 21 86 -116 151 -214 102z m132 -25 c31
-30 32 -69 3 -89 -23 -17 -158 -23 -158 -8 0 4 5 24 10 44 21 73 98 101 145
53z"/>
<path d="M2223 2930 c-54 -28 -83 -84 -83 -162 0 -69 27 -114 90 -146 70 -36
160 -17 190 39 17 31 3 36 -20 6 -29 -37 -88 -54 -126 -36 -33 16 -60 59 -69
112 l-7 37 84 0 c105 0 146 13 155 48 21 86 -116 151 -214 102z m132 -25 c31
-30 32 -69 3 -89 -23 -17 -158 -23 -158 -8 0 4 5 24 10 44 21 73 98 101 145
53z"/>
<path d="M3050 2928 c-83 -42 -113 -144 -70 -234 35 -71 112 -105 190 -84 148
40 173 253 36 319 -55 27 -101 26 -156 -1z m129 -14 c32 -23 51 -74 51 -139 0
-131 -83 -197 -160 -127 -63 57 -58 233 7 271 27 16 76 13 102 -5z"/>
<path d="M3465 2936 c-46 -20 -92 -78 -100 -126 -21 -127 90 -234 210 -200
147 41 169 258 32 320 -49 23 -99 25 -142 6z m130 -30 c29 -29 39 -76 33 -163
-4 -59 -7 -69 -36 -94 -54 -49 -119 -32 -148 37 -19 45 -18 148 2 189 27 58
106 74 149 31z"/>
<path d="M2047 2483 c-14 -13 -6 -33 13 -33 13 0 20 7 20 20 0 19 -20 27 -33
13z"/>
<path d="M2920 2471 c0 -15 6 -21 21 -21 25 0 22 33 -4 38 -12 2 -17 -3 -17
-17z"/>
<path d="M1823 2473 c15 -4 17 -19 17 -123 0 -104 -2 -119 -17 -123 -10 -3 23
-5 73 -6 l92 -1 7 36 c8 45 -1 56 -15 18 -14 -36 -26 -44 -67 -44 l-33 0 0
119 c0 105 2 120 18 124 9 3 -8 5 -38 5 -30 0 -47 -2 -37 -5z"/>
<path d="M2450 2403 c-8 -3 -23 -12 -32 -21 -16 -14 -18 -13 -18 1 0 12 -8 17
-27 16 -16 0 -22 -3 -15 -6 8 -3 12 -30 12 -83 0 -66 -3 -79 -17 -83 -10 -3 9
-5 42 -4 33 0 50 2 38 4 -21 4 -23 10 -23 67 0 52 4 66 21 82 16 14 23 15 26
7 7 -19 35 -16 31 4 -3 19 -16 24 -38 16z"/>
<path d="M2553 2400 c-13 -5 -23 -16 -23 -25 0 -21 17 -19 30 5 21 40 70 18
70 -32 0 -26 -3 -28 -40 -28 -42 0 -80 -26 -80 -54 0 -40 73 -62 103 -31 13
13 17 13 28 -1 15 -18 53 -14 55 6 1 10 -1 10 -3 2 -3 -7 -10 -11 -16 -9 -7 2
-13 31 -15 73 -2 56 -6 72 -23 87 -23 19 -51 21 -86 7z m77 -113 c0 -32 -33
-61 -59 -52 -15 4 -21 15 -21 35 0 31 10 38 53 39 22 1 27 -3 27 -22z"/>
<path d="M2830 2403 c-8 -3 -23 -12 -32 -21 -16 -14 -18 -13 -18 1 0 12 -8 17
-27 16 -16 0 -22 -3 -15 -6 8 -3 12 -30 12 -83 0 -66 -3 -79 -17 -83 -10 -3 9
-5 42 -4 33 0 50 2 38 4 -21 4 -23 10 -23 67 0 52 4 66 21 82 16 14 23 15 26
7 7 -19 35 -16 31 4 -3 19 -16 24 -38 16z"/>
<path d="M3052 2394 c-12 -8 -22 -19 -22 -25 0 -17 28 -9 42 13 14 20 18 21
42 10 22 -10 27 -18 24 -40 -3 -24 -8 -28 -46 -33 -57 -7 -79 -30 -66 -66 7
-22 17 -29 43 -31 20 -2 40 3 51 13 17 15 19 15 27 0 13 -23 57 -16 61 10 3
18 2 19 -8 2 -19 -31 -30 -8 -30 63 0 60 -3 71 -22 84 -12 9 -34 16 -48 16
-14 0 -36 -7 -48 -16z m88 -108 c0 -25 -32 -56 -57 -56 -7 0 -17 9 -23 20 -17
32 4 60 45 60 30 0 35 -3 35 -24z"/>
<path d="M2033 2393 c14 -4 17 -16 17 -79 0 -68 -2 -75 -22 -84 -18 -7 -10 -9
32 -8 30 0 47 2 38 5 -15 4 -18 17 -18 89 l0 84 -32 -1 c-18 -1 -25 -3 -15 -6z"/>
<path d="M2142 2388 c8 -7 28 -48 43 -90 15 -43 33 -78 41 -78 7 0 27 37 44
83 18 45 37 85 44 89 6 4 -5 7 -24 7 -19 -1 -27 -3 -17 -6 21 -5 21 -2 -1 -60
-11 -26 -22 -57 -26 -68 -6 -16 -13 -7 -33 48 -22 58 -24 70 -12 78 9 6 -1 9
-30 9 -38 0 -42 -2 -29 -12z"/>
<path d="M2908 2393 c20 -4 22 -10 22 -71 0 -70 -5 -85 -30 -95 -8 -3 10 -5
40 -5 30 0 47 2 38 5 -15 4 -18 17 -18 89 l0 84 -37 -1 c-24 -1 -29 -3 -15 -6z"/>
</g>
</svg>
